HIERARCHY
ROOT Hips
{
    OFFSET 0.000 95.729 0.000
    CHANNELS 6 Xposition Yposition Zposition Yrotation Xrotation Zrotation
    JOINT RightUpLeg
    {
        OFFSET -9.625 -1.639 0.000
        CHANNELS 3 Yrotation Xrotation Zrotation
        JOINT RightLeg
        {
            OFFSET 0.000 -43.120 0.000
            CHANNELS 3 Yrotation Xrotation Zrotation
            JOINT RightFoot
            {
                OFFSET 0.000 -43.120 0.000
                CHANNELS 3 Yrotation Xrotation Zrotation
                End Site
                {
                    OFFSET 0.000 -7.850 17.850
                }
            }
        }
    }
    JOINT LeftUpLeg
    {
        OFFSET 9.625 -1.639 0.000
        CHANNELS 3 Yrotation Xrotation Zrotation
        JOINT LeftLeg
        {
            OFFSET 0.000 -43.120 0.000
            CHANNELS 3 Yrotation Xrotation Zrotation
            JOINT LeftFoot
            {
                OFFSET 0.000 -43.120 0.000
                CHANNELS 3 Yrotation Xrotation Zrotation
                End Site
                {
                    OFFSET 0.000 -7.850 17.850
                }
            }
        }
    }
    JOINT Spine
    {
        OFFSET 0.000 14.755 0.000
        CHANNELS 3 Yrotation Xrotation Zrotation
        JOINT Spine1
        {
            OFFSET 0.000 10.023 0.000
            CHANNELS 3 Yrotation Xrotation Zrotation
            JOINT Spine2
            {
                OFFSET 0.000 10.437 0.000
                CHANNELS 3 Yrotation Xrotation Zrotation
                JOINT Spine3
                {
                    OFFSET 0.000 10.023 0.000
                    CHANNELS 3 Yrotation Xrotation Zrotation
                    JOINT Neck
                    {
                        OFFSET 0.000 10.713 0.000
                        CHANNELS 3 Yrotation Xrotation Zrotation
                        JOINT Head
                        {
                            OFFSET 0.000 9.720 0.000
                            CHANNELS 3 Yrotation Xrotation Zrotation
                            End Site
                            {
                                OFFSET 0.000 16.450 0.000
                            }
                        }
                    }
                    JOINT RightShoulder
                    {
                        OFFSET -3.275 7.142 0.000
                        CHANNELS 3 Yrotation Xrotation Zrotation
                        JOINT RightArm
                        {
                            OFFSET -13.100 0.000 0.000
                            CHANNELS 3 Yrotation Xrotation Zrotation
                            JOINT RightForeArm
                            {
                                OFFSET -27.250 0.000 0.000
                                CHANNELS 3 Yrotation Xrotation Zrotation
                                JOINT RightHand
                                {
                                    OFFSET -26.750 0.000 0.000
                                    CHANNELS 3 Yrotation Xrotation Zrotation
                                    JOINT RightHandThumb1
                                    {
                                        OFFSET -2.560 0.196 3.210
                                        CHANNELS 3 Yrotation Xrotation Zrotation
                                        JOINT RightHandThumb2
                                        {
                                            OFFSET -3.788 0.000 0.000
                                            CHANNELS 3 Yrotation Xrotation Zrotation
                                            JOINT RightHandThumb3
                                            {
                                                OFFSET -2.631 0.000 0.000
                                                CHANNELS 3 Yrotation Xrotation Zrotation
                                                End Site
                                                {
                                                    OFFSET -2.256 0.000 0.000
                                                }
                                            }
                                        }
                                    }
                                    JOINT RightInHandIndex
                                    {
                                        OFFSET -3.316 0.523 2.035
                                        CHANNELS 3 Yrotation Xrotation Zrotation
                                        JOINT RightHandIndex1
                                        {
                                            OFFSET -5.366 -0.094 1.028
                                            CHANNELS 3 Yrotation Xrotation Zrotation
                                            JOINT RightHandIndex2
                                            {
                                                OFFSET -3.723 0.000 0.000
                                                CHANNELS 3 Yrotation Xrotation Zrotation
                                                JOINT RightHandIndex3
                                                {
                                                    OFFSET -2.111 0.000 0.000
                                                    CHANNELS 3 Yrotation Xrotation Zrotation
                                                    End Site
                                                    {
                                                        OFFSET -1.857 0.000 0.000
                                                    }
                                                }
                                            }
                                        }
                                    }
                                    JOINT RightInHandMiddle
                                    {
                                        OFFSET -3.479 0.532 0.778
                                        CHANNELS 3 Yrotation Xrotation Zrotation
                                        JOINT RightHandMiddle1
                                        {
                                            OFFSET -5.322 -0.086 0.323
                                            CHANNELS 3 Yrotation Xrotation Zrotation
                                            JOINT RightHandMiddle2
                                            {
                                                OFFSET -4.062 0.000 0.000
                                                CHANNELS 3 Yrotation Xrotation Zrotation
                                                JOINT RightHandMiddle3
                                                {
                                                    OFFSET -2.547 0.000 0.000
                                                    CHANNELS 3 Yrotation Xrotation Zrotation
                                                    End Site
                                                    {
                                                        OFFSET -2.031 0.000 0.000
                                                    }
                                                }
                                            }
                                        }
                                    }
                                    JOINT RightInHandRing
                                    {
                                        OFFSET -3.461 0.553 -0.133
                                        CHANNELS 3 Yrotation Xrotation Zrotation
                                        JOINT RightHandRing1
                                        {
                                            OFFSET -4.767 -0.023 -0.493
                                            CHANNELS 3 Yrotation Xrotation Zrotation
                                            JOINT RightHandRing2
                                            {
                                                OFFSET -3.541 0.000 0.000
                                                CHANNELS 3 Yrotation Xrotation Zrotation
                                                JOINT RightHandRing3
                                                {
                                                    OFFSET -2.456 0.000 0.000
                                                    CHANNELS 3 Yrotation Xrotation Zrotation
                                                    End Site
                                                    {
                                                        OFFSET -1.910 0.000 0.000
                                                    }
                                                }
                                            }
                                        }
                                    }
                                    JOINT RightInHandPinky
                                    {
                                        OFFSET -3.251 0.483 -1.236
                                        CHANNELS 3 Yrotation Xrotation Zrotation
                                        JOINT RightHandPinky1
                                        {
                                            OFFSET -4.259 -0.023 -1.122
                                            CHANNELS 3 Yrotation Xrotation Zrotation
                                            JOINT RightHandPinky2
                                            {
                                                OFFSET -2.835 0.000 0.000
                                                CHANNELS 3 Yrotation Xrotation Zrotation
                                                JOINT RightHandPinky3
                                                {
                                                    OFFSET -1.792 0.000 0.000
                                                    CHANNELS 3 Yrotation Xrotation Zrotation
                                                    End Site
                                                    {
                                                        OFFSET -1.692 0.000 0.000
                                                    }
                                                }
                                            }
                                        }
                                    }
                                }
                            }
                        }
                    }
                    JOINT LeftShoulder
                    {
                        OFFSET 3.275 7.142 0.000
                        CHANNELS 3 Yrotation Xrotation Zrotation
                        JOINT LeftArm
                        {
                            OFFSET 13.100 0.000 0.000
                            CHANNELS 3 Yrotation Xrotation Zrotation
                            JOINT LeftForeArm
                            {
                                OFFSET 27.250 0.000 0.000
                                CHANNELS 3 Yrotation Xrotation Zrotation
                                JOINT LeftHand
                                {
                                    OFFSET 26.750 0.000 0.000
                                    CHANNELS 3 Yrotation Xrotation Zrotation
                                    JOINT LeftHandThumb1
                                    {
                                        OFFSET 2.560 0.196 3.210
                                        CHANNELS 3 Yrotation Xrotation Zrotation
                                        JOINT LeftHandThumb2
                                        {
                                            OFFSET 3.788 0.000 0.000
                                            CHANNELS 3 Yrotation Xrotation Zrotation
                                            JOINT LeftHandThumb3
                                            {
                                                OFFSET 2.631 0.000 0.000
                                                CHANNELS 3 Yrotation Xrotation Zrotation
                                                End Site
                                                {
                                                    OFFSET 2.256 0.000 0.000
                                                }
                                            }
                                        }
                                    }
                                    JOINT LeftInHandIndex
                                    {
                                        OFFSET 3.316 0.523 2.035
                                        CHANNELS 3 Yrotation Xrotation Zrotation
                                        JOINT LeftHandIndex1
                                        {
                                            OFFSET 5.366 -0.094 1.028
                                            CHANNELS 3 Yrotation Xrotation Zrotation
                                            JOINT LeftHandIndex2
                                            {
                                                OFFSET 3.723 0.000 0.000
                                                CHANNELS 3 Yrotation Xrotation Zrotation
                                                JOINT LeftHandIndex3
                                                {
                                                    OFFSET 2.111 0.000 0.000
                                                    CHANNELS 3 Yrotation Xrotation Zrotation
                                                    End Site
                                                    {
                                                        OFFSET 1.857 0.000 0.000
                                                    }
                                                }
                                            }
                                        }
                                    }
                                    JOINT LeftInHandMiddle
                                    {
                                        OFFSET 3.479 0.532 0.778
                                        CHANNELS 3 Yrotation Xrotation Zrotation
                                        JOINT LeftHandMiddle1
                                        {
                                            OFFSET 5.322 -0.086 0.323
                                            CHANNELS 3 Yrotation Xrotation Zrotation
                                            JOINT LeftHandMiddle2
                                            {
                                                OFFSET 4.062 0.000 0.000
                                                CHANNELS 3 Yrotation Xrotation Zrotation
                                                JOINT LeftHandMiddle3
                                                {
                                                    OFFSET 2.547 0.000 0.000
                                                    CHANNELS 3 Yrotation Xrotation Zrotation
                                                    End Site
                                                    {
                                                        OFFSET 2.031 0.000 0.000
                                                    }
                                                }
                                            }
                                        }
                                    }
                                    JOINT LeftInHandRing
                                    {
                                        OFFSET 3.461 0.553 -0.133
                                        CHANNELS 3 Yrotation Xrotation Zrotation
                                        JOINT LeftHandRing1
                                        {
                                            OFFSET 4.767 -0.023 -0.493
                                            CHANNELS 3 Yrotation Xrotation Zrotation
                                            JOINT LeftHandRing2
                                            {
                                                OFFSET 3.541 0.000 0.000
                                                CHANNELS 3 Yrotation Xrotation Zrotation
                                                JOINT LeftHandRing3
                                                {
                                                    OFFSET 2.456 0.000 0.000
                                                    CHANNELS 3 Yrotation Xrotation Zrotation
                                                    End Site
                                                    {
                                                        OFFSET 1.910 0.000 0.000
                                                    }
                                                }
                                            }
                                        }
                                    }
                                    JOINT LeftInHandPinky
                                    {
                                        OFFSET 3.251 0.483 -1.236
                                        CHANNELS 3 Yrotation Xrotation Zrotation
                                        JOINT LeftHandPinky1
                                        {
                                            OFFSET 4.259 -0.023 -1.122
                                            CHANNELS 3 Yrotation Xrotation Zrotation
                                            JOINT LeftHandPinky2
                                            {
                                                OFFSET 2.835 0.000 0.000
                                                CHANNELS 3 Yrotation Xrotation Zrotation
                                                JOINT LeftHandPinky3
                                                {
                                                    OFFSET 1.792 0.000 0.000
                                                    CHANNELS 3 Yrotation Xrotation Zrotation
                                                    End Site
                                                    {
                                                        OFFSET 1.692 0.000 0.000
                                                    }
                                                }
                                            }
                                        }
                                    }
                                }
                            }
                        }
                    }
                }
            }
        }
    }
}
MOTION

Frames: 4
Frame Time: 0.008
2.914829 99.578140 -1026.775146 -156.499832 13.519993 -9.507867 -18.894875 -49.912788 22.744589 -0.000002 52.663940 0.000000 9.021139 18.322802 11.701295 -6.645606 -45.936317 18.213749 -0.000015 82.072334 -0.000015 0.983393 24.334961 -28.530352 0.030072 5.822718 3.100030 0.027217 1.458080 0.774367 0.100011 2.418503 1.289114 0.034414 2.567745 0.308346 0.680922 26.445406 1.336156 8.173198 32.432613 7.153133 -8.046837 -16.872303 2.833770 8.611799 -26.305294 12.957008 15.444697 39.191238 -1.871215 78.801697 -70.216896 -89.396416 21.860001 -0.000000 30.000000 -10.000000 -0.000000 0.000000 -10.000000 -0.000000 0.000000 0.000000 -0.000000 0.000000 2.550000 -0.000000 20.000000 0.000000 -0.000000 24.000000 0.000000 -0.000000 20.000000 0.000000 -0.000000 0.000000 0.000000 -0.000000 20.000000 0.000000 -0.000000 24.000000 0.000000 -0.000000 20.000000 0.000000 -0.000000 0.000000 -3.000000 -0.000000 20.000000 0.000000 -0.000000 24.000000 0.000000 -0.000000 20.000000 0.000000 -0.000000 0.000000 -8.830000 -0.000000 20.000000 0.000000 -0.000000 24.000000 0.000000 -0.000000 20.000000 -3.533900 -6.665112 1.394409 -35.924046 -34.289501 -54.093277 -90.312912 12.892481 -20.228384 -17.949171 17.550455 11.266292 -21.860001 -0.000000 -30.000000 10.000000 -0.000000 0.000000 10.000000 -0.000000 0.000000 0.000000 -0.000000 0.000000 -2.550000 -0.000000 -20.000000 0.000000 -0.000000 -24.000000 0.000000 -0.000000 -20.000000 0.000000 -0.000000 0.000000 0.000000 -0.000000 -20.000000 0.000000 -0.000000 -24.000000 0.000000 -0.000000 -20.000000 0.000000 -0.000000 0.000000 3.000000 -0.000000 -20.000000 0.000000 -0.000000 -24.000000 0.000000 -0.000000 -20.000000 0.000000 -0.000000 0.000000 8.830000 -0.000000 -20.000000 0.000000 -0.000000 -24.000000 0.000000 -0.000000 -20.000000 
2.621694 98.584343 -1027.378296 -155.259399 11.783685 -9.321590 -18.336613 -47.126949 21.707813 0.000004 53.389038 0.000005 6.491796 8.930341 7.930973 -6.785917 -45.291458 18.682566 -0.000084 86.716896 -0.000084 1.975653 22.688372 -26.848909 -0.450763 6.378230 3.148206 -0.091434 1.597407 0.791279 -0.091924 2.650779 1.315178 0.018269 2.557971 0.305414 0.645902 25.748417 1.350688 7.586739 32.721676 7.048622 -8.692212 -18.794100 4.037647 9.774043 -25.774515 11.728175 16.245611 40.777313 -0.547014 81.582664 -70.297409 -92.142105 21.860001 -0.000000 30.000000 -10.000000 -0.000000 0.000000 -10.000000 -0.000000 0.000000 0.000000 -0.000000 0.000000 2.550000 -0.000000 20.000000 0.000000 -0.000000 24.000000 0.000000 -0.000000 20.000000 0.000000 -0.000000 0.000000 0.000000 -0.000000 20.000000 0.000000 -0.000000 24.000000 0.000000 -0.000000 20.000000 0.000000 -0.000000 0.000000 -3.000000 -0.000000 20.000000 0.000000 -0.000000 24.000000 0.000000 -0.000000 20.000000 0.000000 -0.000000 0.000000 -8.830000 -0.000000 20.000000 0.000000 -0.000000 24.000000 0.000000 -0.000000 20.000000 -3.537044 -6.924245 1.385113 -35.685642 -34.864796 -54.372021 -90.128799 13.090321 -21.140615 -18.027643 17.869091 11.316911 -21.860001 -0.000000 -30.000000 10.000000 -0.000000 0.000000 10.000000 -0.000000 0.000000 0.000000 -0.000000 0.000000 -2.550000 -0.000000 -20.000000 0.000000 -0.000000 -24.000000 0.000000 -0.000000 -20.000000 0.000000 -0.000000 0.000000 0.000000 -0.000000 -20.000000 0.000000 -0.000000 -24.000000 0.000000 -0.000000 -20.000000 0.000000 -0.000000 0.000000 3.000000 -0.000000 -20.000000 0.000000 -0.000000 -24.000000 0.000000 -0.000000 -20.000000 0.000000 -0.000000 0.000000 8.830000 -0.000000 -20.000000 0.000000 -0.000000 -24.000000 0.000000 -0.000000 -20.000000 
2.338976 97.420998 -1027.775146 -154.305557 9.826651 -9.237708 -18.830767 -44.730011 21.102531 -0.000002 54.115116 -0.000002 4.750584 3.841420 5.305741 -6.862175 -44.630154 19.160469 179.999985 88.719276 179.999985 2.586485 21.688507 -25.136194 -1.099374 6.910025 3.166506 -0.252168 1.730551 0.803437 -0.354416 2.873362 1.332209 0.028327 2.548896 0.283579 0.571477 25.077217 1.198637 7.301424 33.056900 6.649555 -6.091226 -18.318361 2.579760 7.997512 -27.774078 11.814306 17.151569 42.324707 0.962837 83.681152 -70.188164 -94.171799 21.860001 -0.000000 30.000000 -10.000000 -0.000000 0.000000 -10.000000 -0.000000 0.000000 0.000000 -0.000000 0.000000 2.550000 -0.000000 20.000000 0.000000 -0.000000 24.000000 0.000000 -0.000000 20.000000 0.000000 -0.000000 0.000000 0.000000 -0.000000 20.000000 0.000000 -0.000000 24.000000 0.000000 -0.000000 20.000000 0.000000 -0.000000 0.000000 -3.000000 -0.000000 20.000000 0.000000 -0.000000 24.000000 0.000000 -0.000000 20.000000 0.000000 -0.000000 0.000000 -8.830000 -0.000000 20.000000 0.000000 -0.000000 24.000000 0.000000 -0.000000 20.000000 -4.386827 -5.913603 2.546911 -32.689465 -37.742809 -54.032028 -90.225952 11.739955 -23.246325 -18.034948 18.008785 11.330261 -21.860001 -0.000000 -30.000000 10.000000 -0.000000 0.000000 10.000000 -0.000000 0.000000 0.000000 -0.000000 0.000000 -2.550000 -0.000000 -20.000000 0.000000 -0.000000 -24.000000 0.000000 -0.000000 -20.000000 0.000000 -0.000000 0.000000 0.000000 -0.000000 -20.000000 0.000000 -0.000000 -24.000000 0.000000 -0.000000 -20.000000 0.000000 -0.000000 0.000000 3.000000 -0.000000 -20.000000 0.000000 -0.000000 -24.000000 0.000000 -0.000000 -20.000000 0.000000 -0.000000 0.000000 8.830000 -0.000000 -20.000000 0.000000 -0.000000 -24.000000 0.000000 -0.000000 -20.000000 
2.132054 92.150475 -1027.553467 -154.139297 8.240086 -9.373548 -17.918625 -44.628841 21.281136 0.000000 56.916367 0.000001 0.992558 -0.308841 3.713103 -6.725539 -44.704441 20.133867 179.999985 83.676353 179.999985 2.669486 20.599083 -23.356642 -1.609618 7.139673 3.255931 -0.378355 1.788267 0.832085 -0.560153 2.971307 1.377171 0.064703 2.537985 0.240511 0.466147 24.300615 0.884198 7.250051 33.485065 5.911002 -1.244008 -14.839249 -0.780934 4.080161 -32.545761 12.927039 18.057886 43.612530 2.555551 84.685425 -69.831856 -95.107391 21.860001 -0.000000 30.000000 -10.000000 -0.000000 0.000000 -10.000000 -0.000000 0.000000 0.000000 -0.000000 0.000000 2.550000 -0.000000 20.000000 0.000000 -0.000000 24.000000 0.000000 -0.000000 20.000000 0.000000 -0.000000 0.000000 0.000000 -0.000000 20.000000 0.000000 -0.000000 24.000000 0.000000 -0.000000 20.000000 0.000000 -0.000000 0.000000 -3.000000 -0.000000 20.000000 0.000000 -0.000000 24.000000 0.000000 -0.000000 20.000000 0.000000 -0.000000 0.000000 -8.830000 -0.000000 20.000000 0.000000 -0.000000 24.000000 0.000000 -0.000000 20.000000 -6.215779 -3.663822 4.860091 -28.233828 -41.716061 -55.698650 -90.253403 11.879307 -24.673620 -17.954309 18.047604 11.375191 -21.860001 -0.000000 -30.000000 10.000000 -0.000000 0.000000 10.000000 -0.000000 0.000000 0.000000 -0.000000 0.000000 -2.550000 -0.000000 -20.000000 0.000000 -0.000000 -24.000000 0.000000 -0.000000 -20.000000 0.000000 -0.000000 0.000000 0.000000 -0.000000 -20.000000 0.000000 -0.000000 -24.000000 0.000000 -0.000000 -20.000000 0.000000 -0.000000 0.000000 3.000000 -0.000000 -20.000000 0.000000 -0.000000 -24.000000 0.000000 -0.000000 -20.000000 0.000000 -0.000000 0.000000 8.830000 -0.000000 -20.000000 0.000000 -0.000000 -24.000000 0.000000 -0.000000 -20.000000 
